<?xml version="1.0" encoding="UTF-8" standalone="no"?>
<!DOCTYPE svg PUBLIC "-//W3C//DTD SVG 1.1//EN"
 "http://www.w3.org/Graphics/SVG/1.1/DTD/svg11.dtd">
<!-- Generated by graphviz version 2.43.0 (0)
 -->
<!-- Title: %3 Pages: 1 -->
<svg width="2999pt" height="404pt"
 viewBox="0.00 0.00 2998.82 404.00" xmlns="http://www.w3.org/2000/svg" xmlns:xlink="http://www.w3.org/1999/xlink">
<g id="graph0" class="graph" transform="scale(1 1) rotate(0) translate(4 400)">
<title>%3</title>
<polygon fill="white" stroke="transparent" points="-4,4 -4,-400 2994.82,-400 2994.82,4 -4,4"/>
<!-- [root] @tars/core#build -->
<g id="node1" class="node">
<title>[root] @tars/core#build</title>
<ellipse fill="none" stroke="black" cx="857.88" cy="-234" rx="121.58" ry="18"/>
<text text-anchor="middle" x="857.88" y="-230.3" font-family="Times,serif" font-size="14.00">[root] @tars/core#build</text>
</g>
<!-- [root] @tars/shared#build -->
<g id="node2" class="node">
<title>[root] @tars/shared#build</title>
<ellipse fill="none" stroke="black" cx="776.88" cy="-162" rx="133.48" ry="18"/>
<text text-anchor="middle" x="776.88" y="-158.3" font-family="Times,serif" font-size="14.00">[root] @tars/shared#build</text>
</g>
<!-- [root] @tars/core#build&#45;&gt;[root] @tars/shared#build -->
<g id="edge1" class="edge">
<title>[root] @tars/core#build&#45;&gt;[root] @tars/shared#build</title>
<path fill="none" stroke="black" d="M838.28,-216.05C828.1,-207.26 815.51,-196.38 804.38,-186.76"/>
<polygon fill="black" stroke="black" points="806.45,-183.92 796.59,-180.03 801.87,-189.22 806.45,-183.92"/>
</g>
<!-- [root] @tars/types#build -->
<g id="node3" class="node">
<title>[root] @tars/types#build</title>
<ellipse fill="none" stroke="black" cx="937.88" cy="-90" rx="126.98" ry="18"/>
<text text-anchor="middle" x="937.88" y="-86.3" font-family="Times,serif" font-size="14.00">[root] @tars/types#build</text>
</g>
<!-- [root] @tars/core#build&#45;&gt;[root] @tars/types#build -->
<g id="edge2" class="edge">
<title>[root] @tars/core#build&#45;&gt;[root] @tars/types#build</title>
<path fill="none" stroke="black" d="M884,-216.3C896.39,-207.05 910.33,-194.5 918.88,-180 929.96,-161.23 934.61,-136.85 936.55,-118.35"/>
<polygon fill="black" stroke="black" points="940.05,-118.49 937.41,-108.23 933.08,-117.9 940.05,-118.49"/>
</g>
<!-- [root] @tars/shared#build&#45;&gt;[root] @tars/types#build -->
<g id="edge20" class="edge">
<title>[root] @tars/shared#build&#45;&gt;[root] @tars/types#build</title>
<path fill="none" stroke="black" d="M814.63,-144.59C837.44,-134.67 866.7,-121.95 890.99,-111.39"/>
<polygon fill="black" stroke="black" points="892.6,-114.51 900.37,-107.31 889.81,-108.09 892.6,-114.51"/>
</g>
<!-- [root] ___ROOT___ -->
<g id="node5" class="node">
<title>[root] ___ROOT___</title>
<ellipse fill="none" stroke="black" cx="1896.88" cy="-18" rx="92.88" ry="18"/>
<text text-anchor="middle" x="1896.88" y="-14.3" font-family="Times,serif" font-size="14.00">[root] ___ROOT___</text>
</g>
<!-- [root] @tars/types#build&#45;&gt;[root] ___ROOT___ -->
<g id="edge28" class="edge">
<title>[root] @tars/types#build&#45;&gt;[root] ___ROOT___</title>
<path fill="none" stroke="black" d="M1026.39,-77.07C1041.87,-75.21 1057.83,-73.43 1072.88,-72 1333.58,-47.23 1641.8,-30.82 1796.98,-23.46"/>
<polygon fill="black" stroke="black" points="1797.6,-26.93 1807.43,-22.96 1797.27,-19.94 1797.6,-26.93"/>
</g>
<!-- [root] @tars/core#lint -->
<g id="node4" class="node">
<title>[root] @tars/core#lint</title>
<ellipse fill="none" stroke="black" cx="1195.88" cy="-90" rx="113.98" ry="18"/>
<text text-anchor="middle" x="1195.88" y="-86.3" font-family="Times,serif" font-size="14.00">[root] @tars/core#lint</text>
</g>
<!-- [root] @tars/core#lint&#45;&gt;[root] ___ROOT___ -->
<g id="edge3" class="edge">
<title>[root] @tars/core#lint&#45;&gt;[root] ___ROOT___</title>
<path fill="none" stroke="black" d="M1276.87,-77.27C1290.86,-75.4 1305.29,-73.56 1318.88,-72 1488.7,-52.49 1687.25,-35.56 1801.89,-26.37"/>
<polygon fill="black" stroke="black" points="1802.35,-29.84 1812.04,-25.55 1801.79,-22.86 1802.35,-29.84"/>
</g>
<!-- [root] @tars/core#test -->
<g id="node6" class="node">
<title>[root] @tars/core#test</title>
<ellipse fill="none" stroke="black" cx="739.88" cy="-306" rx="116.18" ry="18"/>
<text text-anchor="middle" x="739.88" y="-302.3" font-family="Times,serif" font-size="14.00">[root] @tars/core#test</text>
</g>
<!-- [root] @tars/core#test&#45;&gt;[root] @tars/core#build -->
<g id="edge4" class="edge">
<title>[root] @tars/core#test&#45;&gt;[root] @tars/core#build</title>
<path fill="none" stroke="black" d="M767.85,-288.41C783.75,-278.98 803.86,-267.05 821.03,-256.86"/>
<polygon fill="black" stroke="black" points="822.9,-259.82 829.71,-251.71 819.33,-253.8 822.9,-259.82"/>
</g>
<!-- [root] @tars/mcp#build -->
<g id="node7" class="node">
<title>[root] @tars/mcp#build</title>
<ellipse fill="none" stroke="black" cx="484.88" cy="-306" rx="120.78" ry="18"/>
<text text-anchor="middle" x="484.88" y="-302.3" font-family="Times,serif" font-size="14.00">[root] @tars/mcp#build</text>
</g>
<!-- [root] @tars/mcp#build&#45;&gt;[root] @tars/core#build -->
<g id="edge5" class="edge">
<title>[root] @tars/mcp#build&#45;&gt;[root] @tars/core#build</title>
<path fill="none" stroke="black" d="M556.8,-291.5C619.53,-279.73 710.48,-262.66 775.99,-250.37"/>
<polygon fill="black" stroke="black" points="776.69,-253.8 785.87,-248.51 775.4,-246.92 776.69,-253.8"/>
</g>
<!-- [root] @tars/mcp#build&#45;&gt;[root] @tars/shared#build -->
<g id="edge6" class="edge">
<title>[root] @tars/mcp#build&#45;&gt;[root] @tars/shared#build</title>
<path fill="none" stroke="black" d="M469.81,-288.13C454.39,-268.78 435.02,-237.02 452.88,-216 477.17,-187.42 562.1,-174.22 638.91,-168.14"/>
<polygon fill="black" stroke="black" points="639.49,-171.6 649.2,-167.36 638.96,-164.62 639.49,-171.6"/>
</g>
<!-- [root] @tars/mcp#build&#45;&gt;[root] @tars/types#build -->
<g id="edge7" class="edge">
<title>[root] @tars/mcp#build&#45;&gt;[root] @tars/types#build</title>
<path fill="none" stroke="black" d="M466,-288.11C447.62,-269.57 424.65,-239.35 440.88,-216 484.61,-153.13 694.25,-118.29 826.91,-102.21"/>
<polygon fill="black" stroke="black" points="827.6,-105.66 837.11,-101 826.77,-98.71 827.6,-105.66"/>
</g>
<!-- [root] @tars/mcp#lint -->
<g id="node8" class="node">
<title>[root] @tars/mcp#lint</title>
<ellipse fill="none" stroke="black" cx="1440.88" cy="-90" rx="113.18" ry="18"/>
<text text-anchor="middle" x="1440.88" y="-86.3" font-family="Times,serif" font-size="14.00">[root] @tars/mcp#lint</text>
</g>
<!-- [root] @tars/mcp#lint&#45;&gt;[root] ___ROOT___ -->
<g id="edge8" class="edge">
<title>[root] @tars/mcp#lint&#45;&gt;[root] ___ROOT___</title>
<path fill="none" stroke="black" d="M1519.27,-76.97C1602.35,-64.21 1732.87,-44.18 1816.64,-31.32"/>
<polygon fill="black" stroke="black" points="1817.26,-34.76 1826.62,-29.79 1816.2,-27.84 1817.26,-34.76"/>
</g>
<!-- [root] @tars/mcp#test -->
<g id="node9" class="node">
<title>[root] @tars/mcp#test</title>
<ellipse fill="none" stroke="black" cx="484.88" cy="-378" rx="115.88" ry="18"/>
<text text-anchor="middle" x="484.88" y="-374.3" font-family="Times,serif" font-size="14.00">[root] @tars/mcp#test</text>
</g>
<!-- [root] @tars/mcp#test&#45;&gt;[root] @tars/mcp#build -->
<g id="edge9" class="edge">
<title>[root] @tars/mcp#test&#45;&gt;[root] @tars/mcp#build</title>
<path fill="none" stroke="black" d="M484.88,-359.7C484.88,-351.98 484.88,-342.71 484.88,-334.11"/>
<polygon fill="black" stroke="black" points="488.38,-334.1 484.88,-324.1 481.38,-334.1 488.38,-334.1"/>
</g>
<!-- [root] @tars/obsidian&#45;plugin#build -->
<g id="node10" class="node">
<title>[root] @tars/obsidian&#45;plugin#build</title>
<ellipse fill="none" stroke="black" cx="172.88" cy="-306" rx="172.77" ry="18"/>
<text text-anchor="middle" x="172.88" y="-302.3" font-family="Times,serif" font-size="14.00">[root] @tars/obsidian&#45;plugin#build</text>
</g>
<!-- [root] @tars/obsidian&#45;plugin#build&#45;&gt;[root] @tars/core#build -->
<g id="edge10" class="edge">
<title>[root] @tars/obsidian&#45;plugin#build&#45;&gt;[root] @tars/core#build</title>
<path fill="none" stroke="black" d="M296.41,-293.41C446.61,-279.27 685.33,-256.68 726.88,-252 737.99,-250.75 749.61,-249.36 761.15,-247.93"/>
<polygon fill="black" stroke="black" points="761.77,-251.38 771.26,-246.66 760.9,-244.43 761.77,-251.38"/>
</g>
<!-- [root] @tars/obsidian&#45;plugin#build&#45;&gt;[root] @tars/shared#build -->
<g id="edge11" class="edge">
<title>[root] @tars/obsidian&#45;plugin#build&#45;&gt;[root] @tars/shared#build</title>
<path fill="none" stroke="black" d="M215.42,-288.46C267.75,-268.67 359.66,-235.75 440.88,-216 516.07,-197.72 602.31,-184.27 668.59,-175.49"/>
<polygon fill="black" stroke="black" points="669.18,-178.94 678.64,-174.17 668.27,-172 669.18,-178.94"/>
</g>
<!-- [root] @tars/obsidian&#45;plugin#build&#45;&gt;[root] @tars/types#build -->
<g id="edge12" class="edge">
<title>[root] @tars/obsidian&#45;plugin#build&#45;&gt;[root] @tars/types#build</title>
<path fill="none" stroke="black" d="M197.83,-288.11C249.06,-254.35 370.92,-178.81 484.88,-144 588.9,-112.23 711.7,-99.3 803.19,-94.13"/>
<polygon fill="black" stroke="black" points="803.55,-97.61 813.34,-93.58 803.17,-90.62 803.55,-97.61"/>
</g>
<!-- [root] @tars/obsidian&#45;plugin#lint -->
<g id="node11" class="node">
<title>[root] @tars/obsidian&#45;plugin#lint</title>
<ellipse fill="none" stroke="black" cx="1736.88" cy="-90" rx="165.17" ry="18"/>
<text text-anchor="middle" x="1736.88" y="-86.3" font-family="Times,serif" font-size="14.00">[root] @tars/obsidian&#45;plugin#lint</text>
</g>
<!-- [root] @tars/obsidian&#45;plugin#lint&#45;&gt;[root] ___ROOT___ -->
<g id="edge13" class="edge">
<title>[root] @tars/obsidian&#45;plugin#lint&#45;&gt;[root] ___ROOT___</title>
<path fill="none" stroke="black" d="M1774.8,-72.41C1797.89,-62.31 1827.51,-49.35 1851.8,-38.73"/>
<polygon fill="black" stroke="black" points="1853.4,-41.84 1861.16,-34.63 1850.6,-35.43 1853.4,-41.84"/>
</g>
<!-- [root] @tars/obsidian&#45;plugin#test -->
<g id="node12" class="node">
<title>[root] @tars/obsidian&#45;plugin#test</title>
<ellipse fill="none" stroke="black" cx="172.88" cy="-378" rx="167.07" ry="18"/>
<text text-anchor="middle" x="172.88" y="-374.3" font-family="Times,serif" font-size="14.00">[root] @tars/obsidian&#45;plugin#test</text>
</g>
<!-- [root] @tars/obsidian&#45;plugin#test&#45;&gt;[root] @tars/obsidian&#45;plugin#build -->
<g id="edge14" class="edge">
<title>[root] @tars/obsidian&#45;plugin#test&#45;&gt;[root] @tars/obsidian&#45;plugin#build</title>
<path fill="none" stroke="black" d="M172.88,-359.7C172.88,-351.98 172.88,-342.71 172.88,-334.11"/>
<polygon fill="black" stroke="black" points="176.38,-334.1 172.88,-324.1 169.38,-334.1 176.38,-334.1"/>
</g>
<!-- [root] @tars/providers#build -->
<g id="node13" class="node">
<title>[root] @tars/providers#build</title>
<ellipse fill="none" stroke="black" cx="1304.88" cy="-306" rx="145.67" ry="18"/>
<text text-anchor="middle" x="1304.88" y="-302.3" font-family="Times,serif" font-size="14.00">[root] @tars/providers#build</text>
</g>
<!-- [root] @tars/providers#build&#45;&gt;[root] @tars/core#build -->
<g id="edge15" class="edge">
<title>[root] @tars/providers#build&#45;&gt;[root] @tars/core#build</title>
<path fill="none" stroke="black" d="M1218.43,-291.46C1140.67,-279.28 1026.86,-261.46 948,-249.11"/>
<polygon fill="black" stroke="black" points="948.49,-245.65 938.07,-247.56 947.41,-252.56 948.49,-245.65"/>
</g>
<!-- [root] @tars/providers#build&#45;&gt;[root] @tars/shared#build -->
<g id="edge16" class="edge">
<title>[root] @tars/providers#build&#45;&gt;[root] @tars/shared#build</title>
<path fill="none" stroke="black" d="M1241.9,-289.64C1203.02,-279.76 1152.25,-266.17 1107.88,-252 1064.08,-238.01 1054.96,-229.11 1010.88,-216 961.61,-201.35 905.46,-188.5 860.52,-179.13"/>
<polygon fill="black" stroke="black" points="861.02,-175.66 850.52,-177.07 859.6,-182.52 861.02,-175.66"/>
</g>
<!-- [root] @tars/providers#build&#45;&gt;[root] @tars/types#build -->
<g id="edge17" class="edge">
<title>[root] @tars/providers#build&#45;&gt;[root] @tars/types#build</title>
<path fill="none" stroke="black" d="M1276.09,-288.21C1210.21,-249.8 1048.59,-155.56 975.21,-112.77"/>
<polygon fill="black" stroke="black" points="976.7,-109.58 966.3,-107.57 973.17,-115.63 976.7,-109.58"/>
</g>
<!-- [root] @tars/providers#lint -->
<g id="node14" class="node">
<title>[root] @tars/providers#lint</title>
<ellipse fill="none" stroke="black" cx="2057.88" cy="-90" rx="137.58" ry="18"/>
<text text-anchor="middle" x="2057.88" y="-86.3" font-family="Times,serif" font-size="14.00">[root] @tars/providers#lint</text>
</g>
<!-- [root] @tars/providers#lint&#45;&gt;[root] ___ROOT___ -->
<g id="edge18" class="edge">
<title>[root] @tars/providers#lint&#45;&gt;[root] ___ROOT___</title>
<path fill="none" stroke="black" d="M2020.14,-72.59C1996.92,-62.49 1967.01,-49.49 1942.47,-38.82"/>
<polygon fill="black" stroke="black" points="1943.58,-35.49 1933.01,-34.71 1940.79,-41.9 1943.58,-35.49"/>
</g>
<!-- [root] @tars/providers#test -->
<g id="node15" class="node">
<title>[root] @tars/providers#test</title>
<ellipse fill="none" stroke="black" cx="1304.88" cy="-378" rx="140.28" ry="18"/>
<text text-anchor="middle" x="1304.88" y="-374.3" font-family="Times,serif" font-size="14.00">[root] @tars/providers#test</text>
</g>
<!-- [root] @tars/providers#test&#45;&gt;[root] @tars/providers#build -->
<g id="edge19" class="edge">
<title>[root] @tars/providers#test&#45;&gt;[root] @tars/providers#build</title>
<path fill="none" stroke="black" d="M1304.88,-359.7C1304.88,-351.98 1304.88,-342.71 1304.88,-334.11"/>
<polygon fill="black" stroke="black" points="1308.38,-334.1 1304.88,-324.1 1301.38,-334.1 1308.38,-334.1"/>
</g>
<!-- [root] @tars/shared#lint -->
<g id="node16" class="node">
<title>[root] @tars/shared#lint</title>
<ellipse fill="none" stroke="black" cx="2338.88" cy="-90" rx="125.38" ry="18"/>
<text text-anchor="middle" x="2338.88" y="-86.3" font-family="Times,serif" font-size="14.00">[root] @tars/shared#lint</text>
</g>
<!-- [root] @tars/shared#lint&#45;&gt;[root] ___ROOT___ -->
<g id="edge21" class="edge">
<title>[root] @tars/shared#lint&#45;&gt;[root] ___ROOT___</title>
<path fill="none" stroke="black" d="M2258.07,-76.2C2177.92,-63.51 2055.88,-44.18 1976.24,-31.57"/>
<polygon fill="black" stroke="black" points="1976.69,-28.09 1966.26,-29.99 1975.59,-35.01 1976.69,-28.09"/>
</g>
<!-- [root] @tars/shared#test -->
<g id="node17" class="node">
<title>[root] @tars/shared#test</title>
<ellipse fill="none" stroke="black" cx="589.88" cy="-234" rx="128.08" ry="18"/>
<text text-anchor="middle" x="589.88" y="-230.3" font-family="Times,serif" font-size="14.00">[root] @tars/shared#test</text>
</g>
<!-- [root] @tars/shared#test&#45;&gt;[root] @tars/shared#build -->
<g id="edge22" class="edge">
<title>[root] @tars/shared#test&#45;&gt;[root] @tars/shared#build</title>
<path fill="none" stroke="black" d="M632.79,-216.94C660.01,-206.75 695.42,-193.49 724.33,-182.67"/>
<polygon fill="black" stroke="black" points="725.72,-185.89 733.86,-179.11 723.27,-179.33 725.72,-185.89"/>
</g>
<!-- [root] @tars/testing#build -->
<g id="node18" class="node">
<title>[root] @tars/testing#build</title>
<ellipse fill="none" stroke="black" cx="1007.88" cy="-306" rx="133.78" ry="18"/>
<text text-anchor="middle" x="1007.88" y="-302.3" font-family="Times,serif" font-size="14.00">[root] @tars/testing#build</text>
</g>
<!-- [root] @tars/testing#build&#45;&gt;[root] @tars/core#build -->
<g id="edge23" class="edge">
<title>[root] @tars/testing#build&#45;&gt;[root] @tars/core#build</title>
<path fill="none" stroke="black" d="M972.72,-288.59C951.65,-278.76 924.68,-266.17 902.18,-255.67"/>
<polygon fill="black" stroke="black" points="903.37,-252.37 892.83,-251.31 900.41,-258.71 903.37,-252.37"/>
</g>
<!-- [root] @tars/testing#build&#45;&gt;[root] @tars/shared#build -->
<g id="edge24" class="edge">
<title>[root] @tars/testing#build&#45;&gt;[root] @tars/shared#build</title>
<path fill="none" stroke="black" d="M1009.22,-287.8C1009.77,-267.84 1007.44,-235.2 988.88,-216 972.61,-199.15 922.72,-186.23 875.43,-177.36"/>
<polygon fill="black" stroke="black" points="875.85,-173.88 865.39,-175.53 874.6,-180.77 875.85,-173.88"/>
</g>
<!-- [root] @tars/testing#build&#45;&gt;[root] @tars/types#build -->
<g id="edge25" class="edge">
<title>[root] @tars/testing#build&#45;&gt;[root] @tars/types#build</title>
<path fill="none" stroke="black" d="M1011.39,-287.93C1014.45,-269.76 1017.47,-240.33 1010.88,-216 1000.71,-178.41 976.1,-140.52 958.27,-116.47"/>
<polygon fill="black" stroke="black" points="960.87,-114.12 952.04,-108.27 955.3,-118.35 960.87,-114.12"/>
</g>
<!-- [root] @tars/testing#lint -->
<g id="node19" class="node">
<title>[root] @tars/testing#lint</title>
<ellipse fill="none" stroke="black" cx="2608.88" cy="-90" rx="126.18" ry="18"/>
<text text-anchor="middle" x="2608.88" y="-86.3" font-family="Times,serif" font-size="14.00">[root] @tars/testing#lint</text>
</g>
<!-- [root] @tars/testing#lint&#45;&gt;[root] ___ROOT___ -->
<g id="edge26" class="edge">
<title>[root] @tars/testing#lint&#45;&gt;[root] ___ROOT___</title>
<path fill="none" stroke="black" d="M2518.95,-77.34C2503.59,-75.47 2487.79,-73.62 2472.88,-72 2303.29,-53.6 2105.14,-36.28 1991.02,-26.71"/>
<polygon fill="black" stroke="black" points="1991.17,-23.21 1980.92,-25.87 1990.59,-30.19 1991.17,-23.21"/>
</g>
<!-- [root] @tars/testing#test -->
<g id="node20" class="node">
<title>[root] @tars/testing#test</title>
<ellipse fill="none" stroke="black" cx="1007.88" cy="-378" rx="128.88" ry="18"/>
<text text-anchor="middle" x="1007.88" y="-374.3" font-family="Times,serif" font-size="14.00">[root] @tars/testing#test</text>
</g>
<!-- [root] @tars/testing#test&#45;&gt;[root] @tars/testing#build -->
<g id="edge27" class="edge">
<title>[root] @tars/testing#test&#45;&gt;[root] @tars/testing#build</title>
<path fill="none" stroke="black" d="M1007.88,-359.7C1007.88,-351.98 1007.88,-342.71 1007.88,-334.11"/>
<polygon fill="black" stroke="black" points="1011.38,-334.1 1007.88,-324.1 1004.38,-334.1 1011.38,-334.1"/>
</g>
<!-- [root] @tars/types#lint -->
<g id="node21" class="node">
<title>[root] @tars/types#lint</title>
<ellipse fill="none" stroke="black" cx="2871.88" cy="-90" rx="118.88" ry="18"/>
<text text-anchor="middle" x="2871.88" y="-86.3" font-family="Times,serif" font-size="14.00">[root] @tars/types#lint</text>
</g>
<!-- [root] @tars/types#lint&#45;&gt;[root] ___ROOT___ -->
<g id="edge29" class="edge">
<title>[root] @tars/types#lint&#45;&gt;[root] ___ROOT___</title>
<path fill="none" stroke="black" d="M2788.67,-77.09C2773.78,-75.21 2758.39,-73.42 2743.88,-72 2474.66,-45.73 2155.96,-29.88 1997.22,-23.02"/>
<polygon fill="black" stroke="black" points="1997.14,-19.51 1986.99,-22.58 1996.83,-26.5 1997.14,-19.51"/>
</g>
<!-- [root] @tars/types#test -->
<g id="node22" class="node">
<title>[root] @tars/types#test</title>
<ellipse fill="none" stroke="black" cx="1271.88" cy="-162" rx="121.58" ry="18"/>
<text text-anchor="middle" x="1271.88" y="-158.3" font-family="Times,serif" font-size="14.00">[root] @tars/types#test</text>
</g>
<!-- [root] @tars/types#test&#45;&gt;[root] @tars/types#build -->
<g id="edge30" class="edge">
<title>[root] @tars/types#test&#45;&gt;[root] @tars/types#build</title>
<path fill="none" stroke="black" d="M1204.7,-146.92C1150.16,-135.49 1073.18,-119.36 1015.92,-107.35"/>
<polygon fill="black" stroke="black" points="1016.33,-103.86 1005.82,-105.24 1014.89,-110.72 1016.33,-103.86"/>
</g>
</g>
</svg>
