<?xml version="1.0" encoding="UTF-8" standalone="no"?>
<!DOCTYPE svg PUBLIC "-//W3C//DTD SVG 1.1//EN"
 "http://www.w3.org/Graphics/SVG/1.1/DTD/svg11.dtd">
<!-- Generated by graphviz version 2.43.0 (0)
 -->
<!-- Title: dependency&#45;cruiser output Pages: 1 -->
<svg width="155pt" height="110pt"
 viewBox="0.00 0.00 155.00 110.00" xmlns="http://www.w3.org/2000/svg" xmlns:xlink="http://www.w3.org/1999/xlink">
<g id="graph0" class="graph" transform="scale(1 1) rotate(0) translate(4 106)">
<title>dependency&#45;cruiser output</title>
<polygon fill="white" stroke="transparent" points="-4,4 -4,-106 151,-106 151,4 -4,4"/>
<g id="clust1" class="cluster">
<title>cluster_apps</title>
<path fill="#ffffff" stroke="black" stroke-width="2" d="M20,-8C20,-8 127,-8 127,-8 133,-8 139,-14 139,-20 139,-20 139,-82 139,-82 139,-88 133,-94 127,-94 127,-94 20,-94 20,-94 14,-94 8,-88 8,-82 8,-82 8,-20 8,-20 8,-14 14,-8 20,-8"/>
<text text-anchor="middle" x="73.5" y="-82.8" font-family="Helvetica,sans-Serif" font-weight="bold" font-size="9.00">apps</text>
</g>
<g id="clust2" class="cluster">
<title>cluster_apps/obsidian&#45;plugin</title>
<path fill="#ffffff" stroke="black" stroke-width="2" d="M28,-16C28,-16 119,-16 119,-16 125,-16 131,-22 131,-28 131,-28 131,-56 131,-56 131,-62 125,-68 119,-68 119,-68 28,-68 28,-68 22,-68 16,-62 16,-56 16,-56 16,-28 16,-28 16,-22 22,-16 28,-16"/>
<text text-anchor="middle" x="73.5" y="-56.8" font-family="Helvetica,sans-Serif" font-weight="bold" font-size="9.00">obsidian&#45;plugin</text>
</g>
<!-- apps/obsidian&#45;plugin/esbuild.config.mjs -->
<g id="node1" class="node">
<title>apps/obsidian&#45;plugin/esbuild.config.mjs</title>
<g id="a_node1"><a xlink:href="apps/obsidian-plugin/esbuild.config.mjs" xlink:title="esbuild.config.mjs">
<path fill="#ccffcc" stroke="black" d="M117,-42C117,-42 30,-42 30,-42 27,-42 24,-39 24,-36 24,-36 24,-30 24,-30 24,-27 27,-24 30,-24 30,-24 117,-24 117,-24 120,-24 123,-27 123,-30 123,-30 123,-36 123,-36 123,-39 120,-42 117,-42"/>
<text text-anchor="start" x="32" y="-30.8" font-family="Helvetica,sans-Serif" font-size="9.00">esbuild.config.mjs</text>
</a>
</g>
</g>
</g>
</svg>
